<svg width="87" height="29" viewBox="0 0 87 29" fill="none" xmlns="http://www.w3.org/2000/svg">
<path fill-rule="evenodd" clip-rule="evenodd" d="M31.5527 10.1758C32.049 10.1758 32.5036 10.2804 32.874 10.5303L33.0283 10.6465L33.0303 10.6484C33.2621 10.8471 33.4031 11.116 33.4873 11.4102C33.5462 11.399 33.6055 11.3916 33.665 11.3916L33.8154 11.3994C34.1522 11.431 34.4528 11.5709 34.6895 11.8262C34.6964 11.8331 34.7041 11.8406 34.7109 11.8477C34.9559 12.1016 35.1184 12.4438 35.0225 12.834C35.0053 12.9537 34.959 13.0747 34.918 13.1699C34.8688 13.2842 34.8024 13.4181 34.7217 13.5684C34.5597 13.8701 34.3263 14.2645 34.0254 14.748C33.6479 15.3776 33.2159 16.1463 32.7295 17.0557L32.7275 17.0605C32.2363 17.9575 31.7121 18.8962 31.1572 19.8779C30.6208 20.8436 30.0954 21.747 29.5791 22.5859C29.0628 23.4461 28.5943 24.155 28.1748 24.707L28.1738 24.7061C26.1922 27.3333 24.1966 28.8076 22.1768 28.8076C21.3751 28.8075 20.6955 28.4649 20.1621 27.8301C19.6517 27.2225 19.3665 26.5411 19.3408 25.7969L19.3389 25.7266L19.3555 25.6592C19.3944 25.5033 19.4551 25.3332 19.5605 25.1924C19.6768 25.0374 19.8685 24.8965 20.1289 24.8965L20.2471 24.9062C20.5068 24.9529 20.6617 25.149 20.7344 25.3047C20.7919 25.428 20.8221 25.568 20.8389 25.7061L20.8516 25.8428V25.8447C20.8631 26.0297 20.9566 26.2525 21.2188 26.5146C21.4924 26.7882 21.6817 26.8476 21.793 26.8477C22.808 26.8477 23.9822 26.1866 25.3164 24.623C25.79 24.0671 26.2785 23.403 26.7812 22.6279L26.7861 22.6211L26.79 22.6152C27.3076 21.8699 27.8083 21.0162 28.29 20.0527L28.291 20.0508L28.4531 19.7285L28.293 19.8916L28.291 19.8936C27.5358 20.6488 26.859 21.227 26.2656 21.6162L26.2666 21.6172C25.727 21.9841 25.2001 22.2479 24.7373 22.248C24.1004 22.248 23.4892 22.021 22.9121 21.6123L22.9014 21.6045C22.3148 21.1646 21.927 20.6173 21.8408 19.957C21.595 18.0628 22.7913 15.9568 25.0889 13.6807L25.0908 13.6787C27.3997 11.413 29.5591 10.1759 31.5527 10.1758ZM32.0967 12.3281C31.5613 12.3282 30.8785 12.5428 30.0312 13.043C29.1892 13.5401 28.2218 14.2973 27.1279 15.3281L27.127 15.3271C25.993 16.3982 25.1959 17.3457 24.7119 18.1689C24.2289 18.9906 24.0864 19.6406 24.1719 20.1484C24.2137 20.3449 24.2721 20.4322 24.3066 20.4668C24.3293 20.4894 24.3621 20.5117 24.4492 20.5117C24.8957 20.5116 25.5147 20.2602 26.3281 19.6064C27.1292 18.9625 28.057 17.9789 29.1123 16.6387L32.2334 12.3389C32.1965 12.3329 32.1513 12.3281 32.0967 12.3281Z" fill="#DA9F20"/>
<path fill-rule="evenodd" clip-rule="evenodd" d="M21.1719 0C22.5304 0 23.6408 0.215995 24.4385 0.711914C25.2789 1.22126 25.7362 1.97428 25.7363 2.93164C25.7363 3.56469 25.557 4.15234 25.2041 4.68164C24.8892 5.16454 24.4883 5.5646 24.0049 5.87891L23.9893 5.88867C23.4937 6.18599 22.9683 6.34375 22.4199 6.34375C22.0649 6.34374 21.7257 6.30337 21.458 6.17383C21.3174 6.10577 21.1798 6.00496 21.0781 5.85742C20.9999 5.74385 20.9543 5.61938 20.9365 5.49219L20.9277 5.36426L20.9326 5.27637C20.9538 5.07225 21.0509 4.87332 21.2471 4.7373C21.4382 4.60497 21.6629 4.5762 21.8438 4.57617C21.9855 4.57617 22.1298 4.60648 22.2666 4.64844C22.3945 4.66605 22.4612 4.67188 22.4844 4.67188C22.7265 4.67176 22.9859 4.5557 23.2637 4.17383C23.5577 3.76947 23.6797 3.40039 23.6797 3.05957C23.6796 2.80227 23.619 2.60951 23.5176 2.45898C23.4148 2.30654 23.2473 2.16364 22.9824 2.04395L22.9766 2.04102C22.4119 1.77751 21.7601 1.63965 21.0117 1.63965C19.099 1.63971 17.2105 2.25232 15.3389 3.50684L15.334 3.50977C13.3583 4.80631 12.4884 6.18728 12.4883 7.63574C12.4883 8.0327 12.5973 8.4128 12.8291 8.7832C13.4623 8.5996 14.0618 8.46694 14.6279 8.39062L15.1367 8.31738C15.6392 8.2551 16.1257 8.22365 16.5957 8.22363C17.6374 8.22363 18.4806 8.32264 19.0801 8.55371C19.3834 8.67067 19.6557 8.83265 19.8545 9.0625C20.0618 9.3022 20.168 9.59187 20.168 9.9082C20.1679 10.4277 19.947 10.8755 19.5605 11.2344L19.5449 11.248C19.1845 11.5569 18.737 11.7875 18.2197 11.9521L18.2129 11.9551L18.2051 11.957C17.7123 12.0978 17.2076 12.1679 16.6924 12.168C16.1592 12.168 15.5789 12.0985 14.9551 11.9648C14.3331 11.8315 13.7319 11.6536 13.1523 11.4307C12.6593 11.241 12.2201 11.0234 11.8389 10.7754C9.983 11.336 8.33395 12.1813 6.8877 13.3105C5.40097 14.4669 4.31168 15.7555 3.60352 17.1719C3.22671 17.9255 3.04785 18.6389 3.04785 19.3164C3.04793 20.1544 3.28308 20.7969 3.7207 21.2871C4.18602 21.8083 4.80946 22.2008 5.61133 22.4551C6.45274 22.7152 7.38201 22.8477 8.4043 22.8477C10.1196 22.8476 11.8266 22.5688 13.5273 22.0088L13.5332 22.0078C15.222 21.4723 16.6509 20.6725 17.8301 19.6152L17.832 19.6133C19.4516 18.1782 20.1923 16.7364 20.1924 15.2842C20.1924 14.7065 20.0518 14.366 19.8604 14.168C19.6718 13.9731 19.3517 13.832 18.8037 13.832C18.2272 13.8321 17.5583 13.9812 16.79 14.3047L16.7793 14.3096C16.0157 14.611 15.2893 15.022 14.6006 15.5479C13.9303 16.076 13.3784 16.6511 12.9395 17.2695C12.5187 17.8625 12.3281 18.4355 12.3281 18.9961C12.3281 19.2671 12.3871 19.4296 12.458 19.5283C12.5082 19.5982 12.5839 19.6636 12.7061 19.7139L12.8457 19.7588L12.8779 19.7676L12.9102 19.7793C13.1521 19.8761 13.5439 20.1014 13.5439 20.5645C13.5439 20.6881 13.5143 20.8201 13.4385 20.9414C13.3636 21.0612 13.2608 21.143 13.1592 21.1973C12.9709 21.2976 12.7524 21.3203 12.5645 21.3203C11.9075 21.3203 11.3264 21.135 10.9199 20.6826C10.5226 20.2403 10.3682 19.6256 10.3682 18.9316C10.3682 17.9949 10.6465 17.1109 11.1865 16.2891C11.7112 15.4908 12.3817 14.7877 13.1924 14.1797L13.1973 14.1758L13.5117 13.9551C14.1461 13.5266 14.8189 13.1739 15.5293 12.8965L15.8877 12.7637C16.8492 12.407 17.7903 12.2236 18.708 12.2236C19.7793 12.2236 20.6848 12.4628 21.3584 13.0068C22.0741 13.5626 22.3759 14.4419 22.376 15.5078C22.376 17.7 21.156 19.6962 18.8916 21.499L18.8906 21.498C17.4542 22.6683 15.8605 23.5113 14.1113 24.0205L14.1104 24.0195C12.3763 24.5456 10.5373 24.8076 8.5957 24.8076C7.12399 24.8076 5.74266 24.6215 4.45508 24.2441L4.45312 24.2432C3.17421 23.8617 2.10704 23.2712 1.27148 22.459L1.2666 22.4531C0.419201 21.6057 3.99612e-05 20.5369 0 19.2842C0 18.2984 0.314214 17.3324 0.910156 16.3926C2.85929 13.3001 6.10022 11.0031 10.5645 9.46289C10.0747 8.70944 9.82422 7.87384 9.82422 6.96387C9.82424 6.03674 10.0754 5.21323 10.5957 4.51953C11.5353 3.23835 12.9367 2.2008 14.7607 1.3877L14.7686 1.38379C15.7973 0.946058 16.8389 0.605736 17.8926 0.364258H17.8945C18.9756 0.12157 20.0683 9.23396e-06 21.1719 0ZM16.4043 10.0244C15.9131 10.0244 15.3987 10.0552 14.8613 10.1172L14.8604 10.1162C14.7849 10.1253 14.7097 10.1375 14.6338 10.1475C15.1735 10.3579 15.7624 10.4639 16.4043 10.4639C16.9487 10.4638 17.276 10.3828 17.4512 10.2822C17.5286 10.2378 17.5736 10.1896 17.6006 10.1289C17.5923 10.1265 17.5836 10.1226 17.5742 10.1201C17.3494 10.0619 16.9692 10.0244 16.4043 10.0244Z" fill="#DA9F20"/>
<path fill-rule="evenodd" clip-rule="evenodd" d="M43.1084 5.31152C43.4547 5.31152 43.7673 5.44941 44.0391 5.66113C44.3335 5.85415 44.5864 6.13437 44.6299 6.52441L44.6514 6.7207L44.5342 6.87891L42.2939 9.88672C41.4216 11.057 40.6344 12.1415 39.9336 13.1396L39.9307 13.1436C39.2301 14.1201 38.6268 14.9991 38.1201 15.7803C37.8655 16.1835 37.579 16.6401 37.2607 17.1494C36.9537 17.6407 36.6759 18.1519 36.4297 18.6846C36.2215 19.1577 36.1211 19.6344 36.1211 20.1162C36.1211 20.2617 36.1599 20.3916 36.2441 20.5176C36.2652 20.5396 36.3527 20.6084 36.6445 20.6084C37.1745 20.6084 37.9675 20.3156 39.0596 19.6016C40.1191 18.8874 41.1816 17.899 42.2451 16.627C42.3626 16.486 42.4924 16.3573 42.6318 16.2383C43.155 15.4735 43.831 14.6839 44.6484 13.874C46.9375 11.5851 49.0976 10.3359 51.1143 10.3359C51.6106 10.336 52.0651 10.4404 52.4355 10.6904L52.5889 10.8066L52.6045 10.8193L52.6191 10.834C52.8294 11.0443 52.9655 11.3095 53.0488 11.6025C53.1074 11.5915 53.1664 11.584 53.2256 11.584C53.6229 11.584 53.9725 11.7391 54.252 12.0186C54.4575 12.2242 54.6499 12.4784 54.7051 12.7744C54.7077 12.786 54.7093 12.7971 54.7109 12.8076C54.7112 12.8096 54.7126 12.8115 54.7129 12.8135C54.7177 12.8467 54.7189 12.874 54.7188 12.8916C54.7183 12.9374 54.7115 12.9741 54.707 12.9951C54.698 13.0372 54.6851 13.0707 54.6787 13.0869C54.6648 13.1223 54.6481 13.1551 54.6357 13.1787C54.6093 13.2294 54.573 13.2933 54.5303 13.3643C54.4434 13.5086 54.3128 13.7146 54.1416 13.9795C53.798 14.5111 53.2786 15.295 52.585 16.3301L52.583 16.334C51.8973 17.3362 51.4101 18.1604 51.1123 18.8115C50.808 19.4769 50.7413 19.8791 50.7734 20.084C50.8157 20.2723 50.8698 20.3557 50.8994 20.3867C50.912 20.3998 50.9211 20.4045 50.9277 20.4072C50.9351 20.4103 50.9528 20.416 50.9863 20.416C51.1352 20.4159 51.3786 20.3504 51.7373 20.1406C52.0887 19.935 52.5104 19.6148 53.0029 19.1689C53.9875 18.2776 55.2106 16.9248 56.6758 15.0986C56.7292 15.0297 56.8101 14.9444 56.918 14.8799C57.1043 14.6663 57.3008 14.4509 57.5078 14.2344L57.5098 14.2324C59.4313 12.2461 61.2521 11.1359 62.957 11.1357C63.5543 11.1357 64.0868 11.2989 64.498 11.6729L64.5 11.6738C64.5044 11.6779 64.5093 11.6815 64.5137 11.6855C64.9107 12.0322 65.121 12.4842 65.1211 13.0117C65.1211 13.629 64.9725 14.2063 64.6719 14.7324L64.6709 14.7314C64.2992 15.4147 63.7201 15.8164 62.957 15.8164C62.6448 15.8164 62.3263 15.7712 62.0713 15.6143C61.7763 15.4327 61.626 15.1378 61.626 14.8037C61.626 14.5971 61.6847 14.3836 61.7646 14.1807C61.8126 14.059 61.8735 13.9305 61.9443 13.7949C61.5948 13.9885 61.1812 14.2591 60.7021 14.623L60.7031 14.624C60.2429 14.9796 59.837 15.312 59.4854 15.6221C59.1647 15.9233 58.9133 16.2066 58.7246 16.4707L57.4824 18.2861C57.3971 18.4163 57.2783 18.684 57.1348 19.1328C57.0099 19.5917 56.962 19.888 56.9619 20.0518C56.9619 20.3535 57.0534 20.5717 57.2227 20.7451C57.4185 20.9251 57.6644 21.0243 57.9971 21.0244C58.8799 21.0244 60.1707 20.4314 61.9111 19.0518L61.9121 19.0508C62.3782 18.6836 62.8103 18.3146 63.2119 17.9473C63.6664 16.7645 64.5368 15.5249 65.7705 14.2344L65.7725 14.2324C67.6941 12.246 69.5148 11.1359 71.2197 11.1357C71.7962 11.1357 72.3106 11.2988 72.7158 11.6611C73.1452 12.0046 73.3837 12.4646 73.3838 13.0117C73.3838 14.4895 72.2183 15.7925 70.2959 16.959C68.5815 18.0007 67.0679 18.5683 65.7803 18.5684C65.7249 18.5684 65.6697 18.5653 65.6152 18.5615C65.4395 18.9687 65.3516 19.3895 65.3516 19.8281C65.3516 20.3127 65.4663 20.5836 65.6074 20.7334C65.7433 20.8776 65.9822 20.9922 66.4199 20.9922C67.2936 20.9922 68.5489 20.3879 70.2246 18.9668L70.2344 18.958C70.8648 18.4516 71.4482 17.9303 71.9844 17.3955C72.1148 17.2338 72.2941 17.0124 72.5215 16.7305L72.5273 16.7227L72.7617 16.4531C72.9955 16.1905 73.2734 15.8955 73.5967 15.5703C73.6577 15.5003 73.7223 15.4359 73.79 15.3789C74.2366 14.9365 74.7589 14.4402 75.3564 13.8916L79.3848 10.1191C79.9391 9.58619 80.3821 9.1756 80.7109 8.89062L80.7178 8.88477L80.7236 8.87988C80.9053 8.73228 81.0759 8.60899 81.2324 8.52051C81.3743 8.44031 81.5666 8.35166 81.7744 8.35156C82.1637 8.35156 82.5474 8.42215 82.8428 8.64355C83.1652 8.88537 83.2988 9.24212 83.2988 9.62012C83.2988 10.0483 83.0731 10.4587 82.7705 10.8311L82.7666 10.8359C82.556 11.0887 82.4054 11.2808 82.3096 11.415L82.3086 11.4141C82.2686 11.4739 82.235 11.5258 82.2061 11.5664C82.1967 11.5796 82.1802 11.5954 82.165 11.6152C81.8311 12.2002 81.4951 13.3041 81.1787 14.9912C80.9437 16.2519 80.7401 17.2915 80.5684 18.1074C80.4806 18.5241 80.3986 18.8853 80.3262 19.1904C80.8997 19.0836 81.4769 18.8596 82.0586 18.5049C82.8672 18.0118 83.765 17.1836 84.749 15.9902L84.7646 15.9717L84.7812 15.9541C84.8239 15.9114 84.8884 15.8479 84.9736 15.7627C85.1135 15.6229 85.3183 15.4883 85.583 15.4883L85.6836 15.4941C85.7939 15.5069 85.9275 15.5441 86.0469 15.6436C86.2234 15.7906 86.2744 15.9916 86.2744 16.1484C86.2743 16.3597 86.2101 16.5544 86.1074 16.7256C86.0361 16.8445 85.9624 16.9547 85.8867 17.0557L85.8789 17.0664L85.8701 17.0771C85.1979 17.8794 84.5621 18.5494 83.9629 19.082L83.9551 19.0889C83.3475 19.6064 82.7018 20.0258 82.0186 20.3447L82.0059 20.3506C81.3534 20.6333 80.5949 20.8673 79.7363 21.0605L78.7852 21.6855L78.7842 21.6846C78.4479 21.9152 78.0594 22.0758 77.627 22.1719C77.2045 22.2657 76.7628 22.3115 76.3027 22.3115C75.1805 22.3115 74.267 21.9346 73.6611 21.1182L73.6553 21.1094C73.2576 20.5491 72.9272 19.8401 72.6562 18.9951C71.9829 19.6383 71.2613 20.2324 70.4893 20.7754L70.4902 20.7764C68.8219 21.9897 67.3279 22.664 66.0361 22.6641C65.2402 22.6641 64.5147 22.412 63.875 21.9199L63.8662 21.9131C63.3285 21.4788 63.0012 20.9261 62.8906 20.2773C62.6723 20.4481 62.4511 20.6161 62.2246 20.7783L62.2227 20.7803C60.5176 21.9889 59.0231 22.6641 57.7734 22.6641C56.9776 22.664 56.252 22.412 55.6123 21.9199L55.6035 21.9131C54.9757 21.406 54.635 20.7377 54.5908 19.9434C54.3423 20.1923 54.1021 20.4219 53.8672 20.6279C52.8083 21.5565 51.8064 22.1201 50.8896 22.1201C50.6412 22.1201 50.4004 22.0782 50.1709 21.9922L50.166 21.9902C49.6191 21.7789 49.1761 21.4541 48.874 21.001C48.6087 20.6029 48.4719 20.1366 48.4434 19.6221L47.4297 20.6035C46.8154 21.217 46.2327 21.6802 45.6816 21.9678L45.6807 21.9668C45.1905 22.2332 44.7203 22.4082 44.2979 22.4082C43.661 22.4082 43.0498 22.1812 42.4727 21.7725C41.9535 21.4047 41.5901 20.9454 41.4492 20.3916L41.4023 20.1484C41.3872 20.0321 41.3774 19.9148 41.373 19.7969C41.2397 19.9249 41.1016 20.055 40.959 20.1875C40.357 20.7672 39.7082 21.2596 39.0127 21.6641L39.0137 21.665C38.3063 22.0894 37.5677 22.3115 36.8047 22.3115C36.1016 22.3115 35.4409 22.1408 34.832 21.7998L34.8262 21.7969L34.8193 21.793C34.108 21.3662 33.7764 20.6623 33.7764 19.7959C33.7764 18.683 34.1649 17.4072 34.8867 15.9854L34.8896 15.9805C35.6209 14.5825 36.4484 13.1319 37.3711 11.6299L37.833 10.8896C38.8925 9.21569 39.8218 7.91665 40.6201 7.00293C41.0757 6.48146 41.5015 6.07045 41.8965 5.78613C42.2825 5.5083 42.6934 5.31163 43.1084 5.31152ZM51.626 12.5195C51.1027 12.5195 50.428 12.7337 49.585 13.2344C48.7479 13.7316 47.7825 14.4886 46.6885 15.5195L46.6855 15.5225C45.5525 16.5716 44.7565 17.5075 44.2734 18.3291C43.7921 19.1479 43.6469 19.8105 43.7344 20.3438C43.776 20.5372 43.8328 20.6237 43.8672 20.6582C43.8898 20.6808 43.9225 20.7041 44.0098 20.7041C44.4563 20.7041 45.0751 20.4518 45.8887 19.7979C46.6897 19.154 47.6177 18.171 48.6729 16.8311L51.7891 12.5371C51.7433 12.5263 51.6898 12.5195 51.626 12.5195ZM79.4043 12.3799C79.1372 12.6087 78.8452 12.8675 78.5283 13.1572C77.7892 13.833 77.0604 14.5406 76.3418 15.2803C75.6154 16.028 75.1853 16.5446 75.0059 16.8496L74.999 16.8613C74.7972 17.1842 74.7324 17.3565 74.7207 17.417C74.6479 18.1517 74.8216 18.6754 75.1846 19.0586L75.3447 19.2051C75.7269 19.524 76.1678 19.6796 76.6865 19.6797C77.0964 19.6797 77.3917 19.583 77.6074 19.4248L77.6338 19.4053L77.6631 19.3887C77.6758 19.3817 77.7355 19.3402 77.8252 19.1992C77.9115 19.0635 78.006 18.867 78.1055 18.5986L78.1094 18.5889L78.2764 18.1348C78.4419 17.6535 78.6033 17.0908 78.7607 16.4453C78.927 15.7169 79.052 15.0113 79.1348 14.3281L79.1357 14.3154C79.2347 13.6423 79.3238 12.997 79.4043 12.3799ZM71.4121 13.0645C71.2092 13.0645 70.9098 13.1427 70.4961 13.3643C70.089 13.5823 69.6058 13.9184 69.0459 14.3848L69.0469 14.3857C68.5085 14.8413 67.9898 15.3388 67.4912 15.8789C67.2149 16.1783 66.9641 16.4883 66.7344 16.8057C67.3486 16.6802 68.1384 16.3402 69.1191 15.7305C69.5252 15.4456 69.9227 15.1303 70.3105 14.7832C70.7128 14.421 71.0241 14.0683 71.252 13.7266L71.2568 13.7188L71.2627 13.7109C71.4638 13.4325 71.5467 13.2233 71.5723 13.0752C71.5322 13.0693 71.4796 13.0645 71.4121 13.0645Z" fill="#DA9F20"/>
<path d="M74.3135 6.53711C74.5603 6.5762 74.7598 6.73294 74.9014 6.86914C75.1321 7.04866 75.3359 7.31267 75.3359 7.66797C75.3359 7.91949 75.2616 8.16054 75.0986 8.36426L75.0811 8.38574L75.0615 8.40527C74.9616 8.50518 74.8516 8.6029 74.7324 8.69824L74.7158 8.71191L74.6973 8.72363C74.5655 8.81145 74.3494 8.95255 74.0508 9.14453L74.0391 9.15137L74.0283 9.1582C73.7177 9.33569 73.2811 9.56406 72.7236 9.84277L72.7158 9.84668C72.2244 10.0817 71.8171 10.2745 71.4951 10.4248L71.4883 10.4287L71.4814 10.4316C71.1828 10.5596 70.9515 10.6522 70.8018 10.7021L70.792 10.7061L70.7812 10.709C70.6421 10.7487 70.3763 10.7855 70.1504 10.5918C69.9949 10.4585 69.943 10.2851 69.9268 10.1523L69.9199 10.0361L69.9268 9.93359C69.9573 9.70957 70.0857 9.53757 70.2344 9.42188L73.335 6.92871C73.467 6.82065 73.6002 6.72717 73.7305 6.6582C73.8543 6.59269 74.016 6.52832 74.1963 6.52832L74.3135 6.53711Z" fill="#DA9F20"/>
</svg>
