<svg width="27" height="26" viewBox="0 0 27 26" fill="none" xmlns="http://www.w3.org/2000/svg">
<path fill-rule="evenodd" clip-rule="evenodd" d="M21.6719 0.5C23.0304 0.5 24.1408 0.715995 24.9385 1.21191C25.7789 1.72126 26.2362 2.47428 26.2363 3.43164C26.2363 4.06469 26.057 4.65234 25.7041 5.18164C25.3892 5.66454 24.9883 6.0646 24.5049 6.37891L24.4893 6.38867C23.9937 6.68599 23.4683 6.84375 22.9199 6.84375C22.5649 6.84374 22.2257 6.80337 21.958 6.67383C21.8174 6.60577 21.6798 6.50496 21.5781 6.35742C21.4999 6.24385 21.4543 6.11938 21.4365 5.99219L21.4277 5.86426L21.4326 5.77637C21.4538 5.57225 21.5509 5.37332 21.7471 5.2373C21.9382 5.10497 22.1629 5.0762 22.3438 5.07617C22.4855 5.07617 22.6298 5.10648 22.7666 5.14844C22.8945 5.16605 22.9612 5.17188 22.9844 5.17188C23.2265 5.17176 23.4859 5.0557 23.7637 4.67383C24.0577 4.26947 24.1797 3.90039 24.1797 3.55957C24.1796 3.30227 24.119 3.10951 24.0176 2.95898C23.9148 2.80654 23.7473 2.66364 23.4824 2.54395L23.4766 2.54102C22.9119 2.27751 22.2601 2.13965 21.5117 2.13965C19.599 2.13971 17.7105 2.75232 15.8389 4.00684L15.834 4.00977C13.8583 5.30631 12.9884 6.68728 12.9883 8.13574C12.9883 8.5327 13.0973 8.9128 13.3291 9.2832C13.9623 9.0996 14.5618 8.96694 15.1279 8.89062L15.6367 8.81738C16.1392 8.7551 16.6257 8.72365 17.0957 8.72363C18.1374 8.72363 18.9806 8.82264 19.5801 9.05371C19.8834 9.17067 20.1557 9.33265 20.3545 9.5625C20.5618 9.8022 20.668 10.0919 20.668 10.4082C20.6679 10.9277 20.447 11.3755 20.0605 11.7344L20.0449 11.748C19.6845 12.0569 19.237 12.2875 18.7197 12.4521L18.7129 12.4551L18.7051 12.457C18.2123 12.5978 17.7076 12.6679 17.1924 12.668C16.6592 12.668 16.0789 12.5985 15.4551 12.4648C14.8331 12.3315 14.2319 12.1536 13.6523 11.9307C13.1593 11.741 12.7201 11.5234 12.3389 11.2754C10.483 11.836 8.83395 12.6813 7.3877 13.8105C5.90097 14.9669 4.81168 16.2555 4.10352 17.6719C3.72671 18.4255 3.54785 19.1389 3.54785 19.8164C3.54793 20.6544 3.78308 21.2969 4.2207 21.7871C4.68602 22.3083 5.30946 22.7008 6.11133 22.9551C6.95274 23.2152 7.88201 23.3477 8.9043 23.3477C10.6196 23.3476 12.3266 23.0688 14.0273 22.5088L14.0332 22.5078C15.722 21.9723 17.1509 21.1725 18.3301 20.1152L18.332 20.1133C19.9516 18.6782 20.6923 17.2364 20.6924 15.7842C20.6924 15.2065 20.5518 14.866 20.3604 14.668C20.1718 14.4731 19.8517 14.332 19.3037 14.332C18.7272 14.3321 18.0583 14.4812 17.29 14.8047L17.2793 14.8096C16.5157 15.111 15.7893 15.522 15.1006 16.0479C14.4303 16.576 13.8784 17.1511 13.4395 17.7695C13.0187 18.3625 12.8281 18.9355 12.8281 19.4961C12.8281 19.7671 12.8871 19.9296 12.958 20.0283C13.0082 20.0982 13.0839 20.1636 13.2061 20.2139L13.3457 20.2588L13.3779 20.2676L13.4102 20.2793C13.6521 20.3761 14.0439 20.6014 14.0439 21.0645C14.0439 21.1881 14.0143 21.3201 13.9385 21.4414C13.8636 21.5612 13.7608 21.643 13.6592 21.6973C13.4709 21.7976 13.2524 21.8203 13.0645 21.8203C12.4075 21.8203 11.8264 21.635 11.4199 21.1826C11.0226 20.7403 10.8682 20.1256 10.8682 19.4316C10.8682 18.4949 11.1465 17.6109 11.6865 16.7891C12.2112 15.9908 12.8817 15.2877 13.6924 14.6797L13.6973 14.6758L14.0117 14.4551C14.6461 14.0266 15.3189 13.6739 16.0293 13.3965L16.3877 13.2637C17.3492 12.907 18.2903 12.7236 19.208 12.7236C20.2793 12.7236 21.1848 12.9628 21.8584 13.5068C22.5741 14.0626 22.8759 14.9419 22.876 16.0078C22.876 18.2 21.656 20.1962 19.3916 21.999L19.3906 21.998C17.9542 23.1683 16.3605 24.0113 14.6113 24.5205L14.6104 24.5195C12.8763 25.0456 11.0373 25.3076 9.0957 25.3076C7.62399 25.3076 6.24266 25.1215 4.95508 24.7441L4.95312 24.7432C3.67421 24.3617 2.60704 23.7712 1.77148 22.959L1.7666 22.9531C0.919201 22.1057 0.50004 21.0369 0.5 19.7842C0.5 18.7984 0.814214 17.8324 1.41016 16.8926C3.35929 13.8001 6.60022 11.5031 11.0645 9.96289C10.5747 9.20944 10.3242 8.37384 10.3242 7.46387C10.3242 6.53674 10.5754 5.71323 11.0957 5.01953C12.0353 3.73835 13.4367 2.7008 15.2607 1.8877L15.2686 1.88379C16.2973 1.44606 17.3389 1.10574 18.3926 0.864258H18.3945C19.4756 0.62157 20.5683 0.500009 21.6719 0.5ZM16.9043 10.5244C16.4131 10.5244 15.8987 10.5552 15.3613 10.6172L15.3604 10.6162C15.2849 10.6253 15.2097 10.6375 15.1338 10.6475C15.6735 10.8579 16.2624 10.9639 16.9043 10.9639C17.4487 10.9638 17.776 10.8828 17.9512 10.7822C18.0286 10.7378 18.0736 10.6896 18.1006 10.6289C18.0923 10.6265 18.0836 10.6226 18.0742 10.6201C17.8494 10.5619 17.4692 10.5244 16.9043 10.5244Z" fill="#DA9F20"/>
</svg>
